<?xml version="1.0" encoding="utf-8"?>
<!-- Generator: Adobe Illustrator 23.0.3, SVG Export Plug-In . SVG Version: 6.00 Build 0)  -->
<svg xmlns="http://www.w3.org/2000/svg" xmlns:xlink="http://www.w3.org/1999/xlink" 
aria-hidden="true" role="img" class="iconify iconify--logos"  
viewBox="0 -6 20 44" width="35px" height="35px" preserveAspectRatio="xMidYMid meet">
<g>
	<g>
		<g>
			<path d="M12.25,14c-3.8598633,0-7-3.1401367-7-7s3.1401367-7,7-7s7,3.1401367,7,7S16.1098633,14,12.25,14z M12.25,2
				c-2.7568359,0-5,2.2431641-5,5s2.2431641,5,5,5s5-2.2431641,5-5S15.0068359,2,12.25,2z"/>
		</g>
		<g>
			<path d="M18.1044922,32H4.3076172C2.0703125,32,0.25,30.1796875,0.25,27.9423828c0-6.6166992,5.3833008-12,12-12
				c2.2680664,0,4.4770508,0.637207,6.3876953,1.8422852c0.4672852,0.2944336,0.6074219,0.9121094,0.3125,1.3789063
				c-0.2944336,0.4663086-0.9121094,0.6074219-1.3789063,0.3125c-1.5913086-1.003418-3.4311523-1.5336914-5.3212891-1.5336914
				c-5.5141602,0-10,4.4858398-10,10C2.25,29.0771484,3.1728516,30,4.3076172,30h13.796875c0.5522461,0,1,0.4477539,1,1
				S18.6567383,32,18.1044922,32z"/>
		</g>
	</g>
	<g>
		<path d="M24.75,32c-3.8598633,0-7-3.1401367-7-7s3.1401367-7,7-7s7,3.1401367,7,7S28.6098633,32,24.75,32z M24.75,20
			c-2.7568359,0-5,2.2431641-5,5s2.2431641,5,5,5s5-2.2431641,5-5S27.5068359,20,24.75,20z"/>
	</g>
	<g>
		<path d="M24.75,19c-3.3137207,0-6,2.6862793-6,6s2.6862793,6,6,6s6-2.6862793,6-6S28.0637207,19,24.75,19z M26.75,26h-1v1
			c0,0.5522461-0.4477539,1-1,1s-1-0.4477539-1-1v-1h-1c-0.5522461,0-1-0.4477539-1-1s0.4477539-1,1-1h1v-1
			c0-0.5522461,0.4477539-1,1-1s1,0.4477539,1,1v1h1c0.5522461,0,1,0.4477539,1,1S27.3022461,26,26.75,26z"/>
	</g>
</g>
</svg>
